<svg id="Layer_1" xmlns="http://www.w3.org/2000/svg" viewBox="0 0 50 50"><style>.st0{fill:#85c06e}.st1{fill:#fff}</style><circle class="st0" cx="25" cy="25" r="20"/><path class="st1" d="M30 26.9c-.5-.5-1.2-.5-1.7 0l-1.2 1.2c-.1.1-.2.1-.3.1-.3-.1-.5-.3-.8-.4-1.2-.7-2.2-1.7-3-2.8-.4-.5-.8-1.1-1.1-1.7-.1-.1 0-.2.1-.3l1.2-1.2c.6-.6.6-1.2 0-1.8l-1-1-1-1c-.5-.5-1.2-.5-1.7 0l-1.2 1.2c-.4.4-.6.8-.6 1.3-.1.8.1 1.6.4 2.4.6 1.6 1.5 3.1 2.6 4.4 1.5 1.8 3.3 3.2 5.4 4.2.9.5 1.9.8 3 .9.7 0 1.4-.1 1.9-.7.3-.4.7-.7 1.1-1.1.5-.6.5-1.2 0-1.8-.7-.6-1.4-1.3-2.1-1.9zM30.6 23.8l-3.2-3.2 1.4-1.4 1.8 1.8 3.4-3.4 1.4 1.4-4.8 4.8z"/></svg>