<svg id="Layer_1" xmlns="http://www.w3.org/2000/svg" viewBox="0 0 50 50"><style>.st0{fill:#999}.st1{fill:#e6ebeb}</style><circle class="st0" cx="25" cy="25" r="20"/><path class="st1" d="M19.1 36.4l-6 3.3c-.3.2-.7.4-1 .7 3.5 2.9 8 4.7 12.9 4.7s9.3-1.7 12.8-4.6c-.3-.3-.7-.5-1.1-.7l-6.4-3.2c-.7-.6-1.3-1.4-1.3-2.3v-2.5c.2-.2.4-.5.6-.8.9-1.2 1.5-2.6 2-4 .8-.3 1.4-1 1.4-1.9v-2.7c0-.6-.3-1.1-.7-1.5V17s.8-6-7.4-6c-8.2 0-7.4 6-7.4 6v3.9c-.4.4-.7.9-.7 1.5v2.7c0 .7.4 1.3.9 1.7.7 2.9 2.4 5 2.4 5v2.4c.3.9-.2 1.7-1 2.2zm0 0"/></svg>