<?xml version="1.0" encoding="utf-8"?>
<!-- Generator: Adobe Illustrator 20.1.0, SVG Export Plug-In . SVG Version: 6.00 Build 0)  -->
<svg version="1.1" id="Layer_1" xmlns="http://www.w3.org/2000/svg" xmlns:xlink="http://www.w3.org/1999/xlink" x="0px" y="0px"
	 viewBox="0 0 50 50" style="enable-background:new 0 0 50 50;" xml:space="preserve">
<style type="text/css">
	.st0{fill:#85C06E;}
	.st1{fill:#FFFFFF;}
</style>
<circle class="st0" cx="25" cy="25" r="20"/>
<path class="st1" d="M29.9,26.9c-0.5-0.5-1.2-0.5-1.7,0c-0.4,0.4-0.8,0.8-1.2,1.2c-0.1,0.1-0.2,0.1-0.3,0.1
	c-0.3-0.1-0.5-0.3-0.8-0.4c-1.2-0.7-2.2-1.7-3-2.8c-0.4-0.5-0.8-1.1-1.1-1.7c-0.1-0.1,0-0.2,0.1-0.3c0.4-0.4,0.8-0.8,1.2-1.2
	c0.6-0.6,0.6-1.2,0-1.8c-0.3-0.3-0.6-0.6-1-1c-0.3-0.3-0.7-0.7-1-1c-0.5-0.5-1.2-0.5-1.7,0c-0.4,0.4-0.8,0.8-1.2,1.2
	c-0.4,0.4-0.6,0.8-0.6,1.3c-0.1,0.8,0.1,1.6,0.4,2.4c0.6,1.6,1.5,3.1,2.6,4.4c1.5,1.8,3.3,3.2,5.4,4.2c0.9,0.5,1.9,0.8,3,0.9
	c0.7,0,1.4-0.1,1.9-0.7c0.3-0.4,0.7-0.7,1.1-1.1c0.5-0.6,0.5-1.2,0-1.8C31.3,28.2,30.6,27.5,29.9,26.9L29.9,26.9z M29.4,24.4
	c-0.1-1-0.6-1.9-1.2-2.6c-0.7-0.7-1.6-1.1-2.6-1.2l-0.1,1.7c0.5,0,1.1,0.2,1.6,0.7c0.5,0.5,0.7,1.1,0.7,1.6L29.4,24.4L29.4,24.4z
	 M25.9,17.6l-0.1,1.6c1.4,0.2,2.6,0.6,3.5,1.4c0.9,0.8,1.4,2,1.6,3.5l1.6-0.1c-0.2-2-0.9-3.5-2-4.5C29.2,18.4,27.7,17.8,25.9,17.6
	L25.9,17.6z"/>
</svg>
