<?xml version="1.0" encoding="utf-8"?>
<!-- Generator: Adobe Illustrator 20.1.0, SVG Export Plug-In . SVG Version: 6.00 Build 0)  -->
<svg version="1.1" id="Layer_1" xmlns="http://www.w3.org/2000/svg" xmlns:xlink="http://www.w3.org/1999/xlink" x="0px" y="0px"
	 viewBox="0 0 50 50" style="enable-background:new 0 0 50 50;" xml:space="preserve">
<style type="text/css">
	.st0{fill:#999999;}
	.st1{fill:#E6EBEB;}
</style>
<g>
	<circle class="st0" cx="25" cy="25" r="20"/>
	<path class="st1" d="M19.1,36.4l-6,3.3c-0.3,0.2-0.7,0.4-1,0.7c3.5,2.9,8,4.7,12.9,4.7c4.9,0,9.3-1.7,12.8-4.6
		c-0.3-0.3-0.7-0.5-1.1-0.7l-6.4-3.2C29.6,36,29,35.2,29,34.3v-2.5c0.2-0.2,0.4-0.5,0.6-0.8c0.9-1.2,1.5-2.6,2-4
		c0.8-0.3,1.4-1,1.4-1.9v-2.7c0-0.6-0.3-1.1-0.7-1.5v-3.9c0,0,0.8-6-7.4-6c-8.2,0-7.4,6-7.4,6v3.9c-0.4,0.4-0.7,0.9-0.7,1.5v2.7
		c0,0.7,0.4,1.3,0.9,1.7c0.7,2.9,2.4,5,2.4,5v2.4C20.4,35.1,19.9,35.9,19.1,36.4L19.1,36.4z M19.1,36.4"/>
</g>
</svg>
