<svg version="1.1" id="Layer_1" xmlns="http://www.w3.org/2000/svg" x="0" y="0" viewBox="0 0 50 50" xml:space="preserve"><style>.st0{fill:#ccc}</style><path class="st0" d="M25 6.4c10.2 0 18.6 8.3 18.6 18.6S35.3 43.6 25 43.6 6.4 35.2 6.4 25 14.8 6.4 25 6.4M25 5C14 5 5 14 5 25s9 20 20 20 20-9 20-20S36.1 5 25 5z" id="Button_0"/><path class="st0" d="M28.2 26.4v-2.3l-5 4.9c.5.3 1.1.5 1.8.5 1.7.1 3.2-1.3 3.2-3.1zm1.9-1.9h-.6c-.2 0-.4.2-.4.4v1.3c0 2.3-1.8 4.1-4.1 4.1-.9 0-1.6-.3-2.3-.7l-1 1c.7.6 1.6.9 2.6 1.1v.9h-2.8c-.2 0-.4.2-.4.4v.6c0 .2.2.4.4.4h7c.2 0 .4-.2.4-.4V33c0-.2-.2-.4-.4-.4h-2.8v-.9c2.7-.3 4.8-2.7 4.8-5.4V25c-.1-.3-.2-.5-.4-.5zm1.8-6.9c-.4-.4-1-.4-1.4 0l-2.3 2.3v-.6c0-1.7-1.4-3.2-3.2-3.2-1.7 0-3.2 1.4-3.2 3.2v6.9l-.8.8c-.1-.3-.1-.6-.1-.8v-1.3c0-.2-.2-.4-.4-.4h-.6c-.2 0-.4.2-.4.4v1.3c0 .7.1 1.3.4 1.9l-1.8 1.8c-.4.4-.4 1 0 1.4.2.2.5.3.7.3.3 0 .5-.1.7-.3L31.9 19c.4-.4.4-1.1 0-1.4zm0 0"/></svg>