<svg id="Layer_1" xmlns="http://www.w3.org/2000/svg" viewBox="0 0 400 800"><style>.st0{fill:#fff}.st1{fill:#f7f7f7}.st2{fill:#d6d6d6}.st3{enable-background:new}.st4{fill:#8f8f8f}</style><path class="st0" d="M34.7 81.2h336v676.7h-336z"/><path class="st1" d="M337.2 11.5H67.8c-26.5 0-48.1 21.5-48.1 48.1v686.9c0 26.5 21.5 48.1 48.1 48.1h269.4c26.5 0 48.1-21.5 48.1-48.1V59.6c-.1-26.6-21.6-48.1-48.1-48.1zm27 79.1v660.2H40.8V89.1h323.4v1.5z"/><path class="st2" d="M364.2 89.1H40.8v661.7h323.4V89.1zm-27 707.4H67.8c-27.7 0-50.1-22.4-50.1-50.1V282.8h-2c-1.7 0-3-1.3-3-3v-40c0-1.7 1.3-3 3-3h2v-9.1h-2c-1.7 0-3-1.3-3-3v-40c0-1.7 1.3-3 3-3h2v-31.1h-2c-1.7 0-3-1.3-3-3v-28c0-1.7 1.3-3 3-3h2v-57c0-27.7 22.4-50.1 50.1-50.1h200.3v-3c0-1.7 1.3-3 3-3h52.1c1.7 0 3 1.3 3 3v3h11c27.7 0 50.1 22.4 50.1 50.1v686.9c-.1 27.6-22.5 50-50.1 50zm48-736.9c0-26.5-21.5-48.1-48.1-48.1H67.8c-26.5 0-48.1 21.5-48.1 48.1v686.9c0 26.5 21.5 48.1 48.1 48.1h269.4c26.5 0 48.1-21.5 48.1-48.1V59.6h-.1zm-22.5 31v658.7H42.3V90.6h320.4"/><path class="st1" d="M42.3 90.6h320.4v35H42.3v-35z"/><g class="st3"><path class="st4" d="M300.4 112.1h-1.7v-6.5l-2 .6v-1.4l3.5-1.3h.2v8.6zM308.9 108.6c0 .6-.1 1.2-.2 1.6s-.3.8-.6 1.1-.6.5-.9.7-.7.2-1.2.2-.8-.1-1.2-.2-.7-.4-.9-.7-.5-.7-.6-1.1-.2-1-.2-1.6v-1.5c0-.6.1-1.2.2-1.6s.3-.8.6-1.1.6-.5.9-.7.7-.2 1.2-.2.8.1 1.2.2.7.4.9.7.5.7.6 1.1.2 1 .2 1.6v1.5zm-1.7-1.7c0-.4 0-.7-.1-1s-.1-.5-.2-.6-.2-.3-.4-.3-.3-.1-.5-.1-.4 0-.5.1-.3.2-.4.3-.2.4-.2.6-.1.6-.1 1v1.9c0 .4 0 .7.1 1s.1.5.2.6.2.3.4.3.3.1.5.1.4 0 .5-.1.3-.2.4-.3.2-.4.2-.6.1-.6.1-1v-1.9zM315.8 108.6c0 .6-.1 1.2-.2 1.6s-.3.8-.6 1.1-.6.5-.9.7-.7.2-1.2.2-.8-.1-1.2-.2-.7-.4-.9-.7-.5-.7-.6-1.1-.2-1-.2-1.6v-1.5c0-.6.1-1.2.2-1.6s.3-.8.6-1.1.6-.5.9-.7.7-.2 1.2-.2.8.1 1.2.2.7.4.9.7.5.7.6 1.1.2 1 .2 1.6v1.5zm-1.7-1.7c0-.4 0-.7-.1-1s-.1-.5-.2-.6-.2-.3-.4-.3-.3-.1-.5-.1-.4 0-.5.1-.3.2-.4.3-.2.4-.2.6-.1.6-.1 1v1.9c0 .4 0 .7.1 1s.1.5.2.6.2.3.4.3.3.1.5.1.4 0 .5-.1.3-.2.4-.3.2-.4.2-.6.1-.6.1-1v-1.9zM316.9 105.2c0-.2 0-.5.1-.7s.2-.4.4-.6.3-.3.6-.4.5-.1.8-.1c.3 0 .6 0 .8.1s.4.2.6.4.3.3.4.6.1.4.1.7v.5c0 .2 0 .5-.1.7s-.2.4-.4.6-.3.3-.6.4-.5.1-.8.1c-.3 0-.6 0-.8-.1s-.4-.2-.6-.4-.3-.3-.4-.6-.1-.4-.1-.7v-.5zm1.1.5v.3c0 .1.1.2.1.2l.2.2c.1.1.2.1.3.1.1 0 .2 0 .3-.1s.2-.1.2-.2.1-.2.1-.2v-.8-.3c0-.1-.1-.2-.1-.3s-.1-.1-.2-.2-.2-.1-.3-.1c-.1 0-.2 0-.3.1s-.2.1-.2.2-.1.2-.1.3v.8zm1.1 5.8l-.8-.4 4.2-6.7.8.4-4.2 6.7zm1.9-1.5c0-.2 0-.5.1-.7s.2-.4.4-.6.4-.3.6-.4.5-.1.8-.1c.3 0 .6 0 .8.1s.4.2.6.4.3.3.4.6.1.4.1.7v.5c0 .2 0 .5-.1.7s-.2.4-.4.6-.3.3-.6.4-.5.1-.8.1c-.3 0-.6 0-.8-.1s-.4-.2-.6-.4-.3-.3-.4-.6-.1-.4-.1-.7v-.5zm1.1.5c0 .1 0 .2.1.3s.1.2.1.2l.2.2c.1.1.2.1.3.1.1 0 .3 0 .3-.1s.2-.1.2-.2.1-.2.1-.2v-.8-.3c0-.1-.1-.2-.1-.2l-.2-.2c-.1-.1-.2-.1-.3-.1s-.2 0-.3.1-.2.1-.2.2-.1.2-.1.2v.8z"/></g><g class="st3"><path class="st4" d="M92.8 108.1c0 .7-.1 1.2-.3 1.8s-.4 1-.7 1.3-.7.6-1.1.8-.9.3-1.5.3-1-.1-1.5-.3-.8-.5-1.2-.8-.6-.8-.8-1.3-.3-1.1-.3-1.8v-.4c0-.6.1-1.2.3-1.8s.4-1 .7-1.3.7-.6 1.1-.8.9-.3 1.5-.3 1 .1 1.5.3.8.5 1.1.8.6.8.7 1.3.3 1.1.3 1.8v.4zm-1.8-.4c0-.9-.2-1.6-.5-2s-.8-.7-1.4-.7-1.1.2-1.4.7-.5 1.1-.5 2v.4c0 .4 0 .8.1 1.2s.2.6.4.9.4.4.6.5.5.2.8.2c.6 0 1-.2 1.4-.7s.5-1.2.5-2v-.5zM101 112.1h-1.8l-3.4-5.6v5.6H94v-8.5h1.8l3.4 5.6v-5.6h1.8v8.5zM107.7 108.4h-3.4v2.3h4v1.4h-5.7v-8.5h5.7v1.4h-3.9v2h3.4v1.4zM110.8 105.8l.1.7c.2-.3.5-.5.8-.6s.7-.2 1.1-.2c.4 0 .7.1 1 .2s.5.4.7.7c.2-.3.5-.5.8-.7s.7-.3 1.1-.3c.3 0 .6 0 .8.1s.5.2.6.4.3.4.4.7.1.7.1 1.1v4h-1.7v-4c0-.2 0-.4-.1-.5s-.1-.2-.2-.3-.2-.1-.3-.2-.3 0-.4 0c-.3 0-.5.1-.7.2s-.3.3-.4.5v4.4h-1.7v-4c0-.2 0-.4-.1-.5s-.1-.2-.2-.3-.2-.1-.3-.2-.3 0-.4 0c-.3 0-.5.1-.6.2l-.4.4v4.5h-1.7v-6.3h1.7z"/></g><circle class="st4" cx="51" cy="108.1" r="3"/><circle class="st4" cx="58" cy="108.1" r="3"/><circle class="st4" cx="65" cy="108.1" r="3"/><path class="st4" d="M79 105.1c-1.7 0-3 1.3-3 3s1.3 3 3 3 3-1.3 3-3c0-1.6-1.3-3-3-3zm0 5c-1.1 0-2-.9-2-2s.9-2 2-2 2 .9 2 2-.9 2-2 2zM72 105.1c-1.7 0-3 1.3-3 3s1.3 3 3 3 3-1.3 3-3c0-1.6-1.3-3-3-3zm0 5c-1.1 0-2-.9-2-2s.9-2 2-2 2 .9 2 2-.9 2-2 2z"/><g><path class="st4" d="M125.5 103c-2.3 0-4.4 1-6 2.4l.9 1.1c1.4-1.2 3.1-1.9 5.1-1.9 1.9 0 3.7.7 5.1 1.9l.9-1.1c-1.6-1.4-3.7-2.4-6-2.4zm-4 4.6l1 1.1c.8-.7 1.9-1.1 3-1.1 1.2 0 2.2.4 3 1.1l1-1.1c-1.1-.9-2.5-1.6-4-1.6-1.5.1-3 .7-4 1.6zm1.9 2.3l2 2.3 2-2.3c-.6-.5-1.3-.8-2-.8s-1.4.3-2 .8z"/></g><path class="st4" d="M289 107.4l2.6-2.9-3.6-3.9h-.2v5.6l-2.6-2.7-.6.7 3.1 3.2-3.1 3.2.6.7 2.6-2.7v5.1h.3l3.5-3.6-2.6-2.7zm1.1-2.6l-1.4 1.5v-2.8l1.4 1.3zm-1.4 6.6v-2.8l1.5 1.5-1.5 1.3z"/><g><path class="st4" d="M354.7 103.6c0-1.1-.9-2-2-2h-20c-1.1 0-2 .9-2 2v7c0 1.1.9 2 2 2h20c1.1 0 2-.9 2-2v-7zm-1 7.5c0 .5-.4.5-1 .5h-20c-.5 0-1 .1-1-.5v-7c0-.5.4-1.5 1-1.5h20c.5 0 1 .9 1 1.5v7z"/><path class="st4" d="M352.7 109.7c0 .5-.4 1-1 1h-18c-.5 0-1-.4-1-1v-5.1c0-.5.4-1 1-1h18c.5 0 1 .4 1 1v5.1zM355.7 105.6h1v3h-1z"/></g></svg>