<svg version="1.1" id="Layer_1" xmlns="http://www.w3.org/2000/svg" x="0" y="0" viewBox="0 0 400 800" xml:space="preserve"><defs><style>@import url(https://fonts.googleapis.com/css?family=Roboto+Condensed:300,300i,400,400i,700,700i);</style></defs><style>.st1{fill-rule:evenodd;clip-rule:evenodd;fill:#f7f7f7}.st3{fill:#8f8f8f}.st4{font-family:&apos;Roboto Condensed&apos;,sans-serif;font-weight:700}.st5{font-size:12px}.st6{fill-rule:evenodd;clip-rule:evenodd;fill:#8f8f8f}</style><path fill="#fff" d="M34.7 81.2h336v616.7h-336z"/><path class="st1" d="M42.3 629.4h320.5v60H42.3z"/><path class="st1" d="M337.2 11.5H67.8c-26.5 0-48.1 21.5-48.1 48.1v686.9c0 26.5 21.5 48.1 48.1 48.1h269.4c26.5 0 48.1-21.5 48.1-48.1V59.6c-.1-26.6-21.6-48.1-48.1-48.1zm27 79.1v600.2H40.8V89.1h323.4v1.5z"/><path d="M364.2 89.1H40.8v601.7h323.4V89.1zm-27 707.4H67.8c-27.7 0-50.1-22.4-50.1-50.1V282.8h-2c-1.7 0-3-1.3-3-3v-40c0-1.7 1.3-3 3-3h2v-9.1h-2c-1.7 0-3-1.3-3-3v-40c0-1.7 1.3-3 3-3h2v-31.1h-2c-1.7 0-3-1.3-3-3v-28c0-1.7 1.3-3 3-3h2v-57c0-27.7 22.4-50.1 50.1-50.1h200.3v-3c0-1.7 1.3-3 3-3h52.1c1.7 0 3 1.3 3 3v3h11c27.7 0 50.1 22.4 50.1 50.1v686.9c-.1 27.6-22.5 50-50.1 50zm48-736.9c0-26.5-21.5-48.1-48.1-48.1H67.8c-26.5 0-48.1 21.5-48.1 48.1v686.9c0 26.5 21.5 48.1 48.1 48.1h269.4c26.5 0 48.1-21.5 48.1-48.1V59.6zM245.1 45.5c4.5 0 8.1 3.6 8.1 8.1s-3.6 8.1-8.1 8.1h-62.3c-4.5 0-8.1-3.6-8.1-8.1s3.6-8.1 8.1-8.1h62.3m.4-1.2h-62.9c-5.1 0-9.3 4.2-9.3 9.3s4.2 9.3 9.3 9.3h62.9c5.1 0 9.3-4.2 9.3-9.3s-4.2-9.3-9.3-9.3zm-91 1.2c4.5 0 8.1 3.6 8.1 8.1s-3.6 8.1-8.1 8.1-8.1-3.6-8.1-8.1c.1-4.4 3.7-8.1 8.1-8.1m0-1.2c-5.1 0-9.3 4.2-9.3 9.3 0 5.1 4.2 9.3 9.3 9.3 5.1 0 9.3-4.2 9.3-9.3.1-5.2-4.1-9.3-9.3-9.3zm208.2 46.3v598.7H42.3V90.6h320.4M202 713.5c16.1 0 29.1 13.1 29.1 29.1 0 16.1-13.1 29.1-29.1 29.1s-29.1-13.1-29.1-29.1 13-29.1 29.1-29.1m0-1.2c-16.8 0-30.3 13.6-30.3 30.3S185.2 773 202 773s30.3-13.6 30.3-30.3-13.5-30.4-30.3-30.4zm0 17.5c7.1 0 12.8 5.7 12.8 12.8 0 7.1-5.7 12.8-12.8 12.8s-12.8-5.7-12.8-12.8c0-7 5.7-12.8 12.8-12.8m0-1.3c-7.8 0-14.1 6.3-14.1 14.1s6.3 14.1 14.1 14.1 14.1-6.3 14.1-14.1-6.3-14.1-14.1-14.1z" fill-rule="evenodd" clip-rule="evenodd" fill="#d6d6d6"/><path class="st1" d="M42.3 90.6h320.4v35H42.3v-35z"/><text transform="translate(295.712 112.124)" class="st3 st4 st5">100%</text><text transform="translate(183.015 112.124)" class="st3 st4 st5">7:40 PM</text><text transform="translate(85.029 112.124)" class="st3 st4 st5">ONEm</text><circle class="st6" cx="51" cy="108.1" r="3"/><circle class="st6" cx="58" cy="108.1" r="3"/><circle class="st6" cx="65" cy="108.1" r="3"/><path class="st6" d="M79 105.1c-1.7 0-3 1.3-3 3s1.3 3 3 3 3-1.3 3-3c0-1.6-1.3-3-3-3zm0 5c-1.1 0-2-.9-2-2s.9-2 2-2 2 .9 2 2-.9 2-2 2zm-7-5c-1.7 0-3 1.3-3 3s1.3 3 3 3 3-1.3 3-3c0-1.6-1.3-3-3-3zm0 5c-1.1 0-2-.9-2-2s.9-2 2-2 2 .9 2 2-.9 2-2 2z"/><path class="st3" d="M125.5 103c-2.3 0-4.4 1-6 2.4l.9 1.1c1.4-1.2 3.1-1.9 5.1-1.9 1.9 0 3.7.7 5.1 1.9l.9-1.1c-1.6-1.4-3.7-2.4-6-2.4zm-4 4.6l1 1.1c.8-.7 1.9-1.1 3-1.1 1.2 0 2.2.4 3 1.1l1-1.1c-1.1-.9-2.5-1.6-4-1.6-1.5.1-3 .7-4 1.6zm1.9 2.3l2 2.3 2-2.3c-.6-.5-1.3-.8-2-.8s-1.4.3-2 .8zm165.6-2.5l2.6-2.9-3.6-3.9h-.2v5.6l-2.6-2.7-.6.7 3.1 3.2-3.1 3.2.6.7 2.6-2.7v5.1h.3l3.5-3.6-2.6-2.7zm1.1-2.6l-1.4 1.5v-2.8l1.4 1.3zm-1.4 6.6v-2.8l1.5 1.5-1.5 1.3z"/><path class="st6" d="M354.7 103.6c0-1.1-.9-2-2-2h-20c-1.1 0-2 .9-2 2v7c0 1.1.9 2 2 2h20c1.1 0 2-.9 2-2v-7zm-1 7.5c0 .5-.4.5-1 .5h-20c-.5 0-1 .1-1-.5v-7c0-.5.4-1.5 1-1.5h20c.5 0 1 .9 1 1.5v7z"/><path class="st6" d="M352.7 109.7c0 .5-.4 1-1 1h-18c-.5 0-1-.4-1-1v-5.1c0-.5.4-1 1-1h18c.5 0 1 .4 1 1v5.1zm3-4.1h1v3h-1z"/></svg>