<svg id="Layer_1" xmlns="http://www.w3.org/2000/svg" viewBox="0 0 340 80"><style>.st0{fill:#787878}.st1{fill:#8e9090}.st2{fill:#ad1b14}.st3{fill:#e2231a}.st4{fill:#fff}</style><path class="st0" d="M202.6 75.2l25.7-21.4h-25.7z"/><path class="st1" d="M163.3 11.8h162.8v51.3H163.3z"/><path class="st2" d="M123.3 79.9L97.7 58.5h25.6z"/><path class="st3" d="M0 0h146v69H0z"/><path class="st4" d="M132.8 17.6c-1.9 0-3.4 1.5-3.4 3.4s1.5 3.4 3.4 3.4 3.4-1.5 3.4-3.4-1.5-3.4-3.4-3.4m0 6.2c-1.6 0-2.8-1.3-2.8-2.8 0-1.6 1.3-2.8 2.8-2.8 1.6 0 2.8 1.3 2.8 2.8 0 1.6-1.2 2.8-2.8 2.8"/><path class="st4" d="M133.7 19.3c.1.1.2.1.3.2.1.1.1.2.2.3 0 .1.1.2.1.4s0 .3-.1.5-.2.3-.4.3c.2.1.3.2.3.3.1.1.1.3.1.5v.5c0 .1.1.2.1.2v.1h-.8v-.2-.6c0-.2 0-.4-.1-.4-.1-.1-.2-.1-.4-.1h-.7v1.3h-.7v-3.4h1.6c.2.1.3.1.5.1m-1.5.5v.9h.8c.1 0 .3 0 .3-.1.1-.1.2-.2.2-.4s-.1-.3-.2-.4c-.1 0-.2-.1-.3-.1h-.8zM136.2 51.2h-6.7v-9.6c0-1.7-.2-2.8-.5-3.4-.5-.9-1.2-1.4-2.3-1.4-1.1 0-2 .5-2.6 1.5-.4.7-.6 1.8-.6 3.3v9.6H117v-9.6c0-1.7-.1-2.8-.4-3.3-.5-1-1.4-1.5-2.5-1.5-1 0-1.9.4-2.4 1.3-.2.3-.4.7-.5 1.3-.1.5-.1 1.3-.1 2.2v9.6h-7.4V31.8h7.4v2.4c.8-.8 1.5-1.4 2.2-1.7 1.2-.7 2.5-1 3.9-1 1.9 0 3.4.5 4.6 1.5.6.5 1.2 1.2 1.8 2.1.5-.9 1.1-1.6 1.7-2.1 1.3-1.1 2.9-1.6 4.6-1.6 1.4 0 2.7.3 3.8 1 1.2.8 1.9 1.8 2.3 3.1.2.8.3 1.8.3 3v12.7M76.2 51.2h-9.4l-12-17.3.2 17.3h-9.9V18.7H55l11.5 17.7.3-17.7h9.4v32.5M100.3 51.2h-21V18.7h21v7.1H88.4v5.5h12.2v7.1H88.4v5.7h11.9v7.1M23.5 23.3h4.8v2.8c1.5.5 2.8 1.3 3.9 2.6 1.3 1.6 2 3.6 2 5.8 0 2.2-.6 4.1-2 5.7-1.1 1.4-2.4 2.3-3.9 2.7v2.7h-4.8V43c-1.5-.5-2.8-1.3-3.9-2.7-1.3-1.7-2-3.6-2-5.7 0-1 .1-2.1.5-3.1.6-1.8 1.6-3.2 3-4.2.7-.6 1.5-.9 2.3-1.2v-2.8zm.5-5.5c-4.3.4-7.7 2.3-10.4 5.5-1.2 1.5-2.1 3.2-2.8 5.3-.7 2-1.1 4.1-1.1 6 0 4.3 1.3 8.1 3.9 11.3 3 3.7 7.1 5.5 12.2 5.5S35 49.6 38 45.9c2.6-3.2 3.9-7 3.9-11.3 0-4.3-1.3-8.1-3.9-11.3-3-3.7-7.1-5.5-12.2-5.5-.6 0-1.2-.1-1.8 0z"/><g><path class="st4" d="M194.8 47.9h-8.5V24.2h8.5c3.9 0 6.4 1.5 7.7 4.6.7 1.8 1.1 4.1 1.1 6.9 0 6-1.5 9.7-4.5 11.3-1.2.6-2.6.9-4.3.9zm6.1-12.1c0-4.5-1-7.4-3-8.5-.8-.5-1.8-.7-3-.7H189v19h5.8c4 0 6.1-3.3 6.1-9.8zM219.6 45.8l1-.1.1 2c-2.6.4-4.8.5-6.7.5-2.5 0-4.2-.7-5.2-2.1-1-1.4-1.5-3.6-1.5-6.7 0-6 2.4-9 7.2-9 2.3 0 4 .6 5.2 1.9 1.1 1.3 1.7 3.3 1.7 6.1l-.1 2H210c0 1.9.3 3.3 1 4.2.7.9 1.9 1.4 3.6 1.4s3.3 0 5-.2zm-.9-7.4c0-2.1-.3-3.6-1-4.5-.7-.9-1.8-1.3-3.3-1.3-1.5 0-2.7.5-3.4 1.4-.8.9-1.2 2.4-1.2 4.4h8.9zM230.7 32.8c-2.5 0-3.7.9-3.7 2.6 0 .8.3 1.4.9 1.7s1.9.7 3.9 1c2 .4 3.5.9 4.3 1.5.8.6 1.3 1.8 1.3 3.6s-.6 3-1.7 3.9c-1.1.8-2.8 1.2-4.9 1.2-1.4 0-3.1-.2-5-.5l-1-.2.1-2.2c2.6.4 4.6.6 5.9.6s2.3-.2 3-.6c.7-.4 1-1.1 1-2.1s-.3-1.7-.9-2c-.6-.4-1.9-.7-3.9-1-2-.3-3.4-.8-4.3-1.4-.8-.6-1.3-1.8-1.3-3.4 0-1.7.6-2.9 1.8-3.7 1.2-.8 2.6-1.2 4.4-1.2 1.4 0 3.1.2 5.2.5l1 .2-.1 2.2c-2.6-.5-4.6-.7-6-.7zM243.8 47.9h-2.6V23.4h2.6v14.5l2.7-.1 4.9-6.9h2.9l-5.6 7.9 5.8 9.2h-2.9l-5.1-7.9-2.7.1v7.7zM266.5 33h-5.4v8.2c0 2 .1 3.3.4 3.9.3.6 1 .9 2 .9l3-.2.2 2.1c-1.5.3-2.7.4-3.5.4-1.8 0-3-.4-3.7-1.3-.7-.9-1-2.5-1-5v-9h-2.4v-2.2h2.4v-5.2h2.5v5.2h5.4V33zM268.9 39.3c0-3.1.6-5.4 1.7-6.8 1.1-1.4 3-2.1 5.7-2.1s4.5.7 5.7 2.1c1.1 1.4 1.7 3.7 1.7 6.8 0 3.1-.5 5.4-1.6 6.8-1.1 1.4-3 2.1-5.8 2.1s-4.7-.7-5.8-2.1c-1.1-1.4-1.6-3.6-1.6-6.8zm2.6 0c0 2.5.3 4.3.9 5.3.6 1 1.9 1.5 3.8 1.5s3.2-.5 3.8-1.5c.6-1 .9-2.7.9-5.3 0-2.5-.3-4.2-1-5.2-.7-.9-1.9-1.4-3.7-1.4-1.8 0-3 .5-3.7 1.4-.6 1-1 2.7-1 5.2zM287.7 55.6V30.8h2.5V32c1.7-1 3.4-1.6 5.1-1.6 2.2 0 3.7.7 4.7 2.1 1 1.4 1.5 3.7 1.5 6.8 0 3.2-.6 5.5-1.7 6.8-1.2 1.4-3.1 2.1-5.7 2.1-1.4 0-2.7-.1-3.8-.4v7.6h-2.6zm7.3-22.8c-.7 0-1.4.1-2.2.3-.8.2-1.4.5-1.9.7l-.7.3v11.5c1.6.3 2.9.4 3.7.4 1.8 0 3.1-.5 3.9-1.6.7-1.1 1.1-2.8 1.1-5.1 0-2.4-.3-4.1-1-5.1-.6-.9-1.6-1.4-2.9-1.4z"/></g></svg>