<svg id="Layer_1" xmlns="http://www.w3.org/2000/svg" viewBox="0 0 50 50"><style>.st0{fill:#dbdbdb}.st1{fill:#ccc}</style><g id="_x30__Button_2_"><path class="st0" d="M25 6.4c10.2 0 18.6 8.3 18.6 18.6S35.2 43.6 25 43.6 6.4 35.2 6.4 25 14.8 6.4 25 6.4M25 5C14 5 5 14 5 25s9 20 20 20 20-9 20-20S36 5 25 5z"/><path class="st1" d="M22 21.1l-3.5 3.5c-.2.2-.2.6 0 .8l3.5 3.5c.1.1.2.2.4.2H30c.3 0 .6-.2.6-.6v-7.1c0-.3-.2-.6-.6-.6h-7.6c-.1.1-.3.2-.4.3zm6.2 5.6l-.8.8-1.7-1.7-1.7 1.7-.8-.8 1.7-1.7-1.7-1.7.8-.8 1.7 1.7 1.7-1.7.8.8-1.7 1.7 1.7 1.7z"/></g></svg>