<?xml version="1.0" encoding="utf-8"?>
<!-- Generator: Adobe Illustrator 20.1.0, SVG Export Plug-In . SVG Version: 6.00 Build 0)  -->
<svg version="1.1" id="Layer_1" xmlns="http://www.w3.org/2000/svg" xmlns:xlink="http://www.w3.org/1999/xlink" x="0px" y="0px"
	 viewBox="0 0 50 50" style="enable-background:new 0 0 50 50;" xml:space="preserve">
<style type="text/css">
	.st0{fill:#DBDBDB;}
	.st1{fill:#CCCCCC;}
</style>
<g id="_x30__Button_2_">
	<path class="st0" d="M25,6.4c10.2,0,18.6,8.3,18.6,18.6S35.2,43.6,25,43.6S6.4,35.2,6.4,25S14.8,6.4,25,6.4 M25,5C14,5,5,14,5,25
		s9,20,20,20c11,0,20-9,20-20S36,5,25,5L25,5z"/>
	<path class="st1" d="M22,21.1l-3.5,3.5c-0.2,0.2-0.2,0.6,0,0.8l3.5,3.5c0.1,0.1,0.2,0.2,0.4,0.2H30c0.3,0,0.6-0.2,0.6-0.6v-7.1
		c0-0.3-0.2-0.6-0.6-0.6h-7.6C22.3,20.9,22.1,21,22,21.1z M28.2,26.7l-0.8,0.8l-1.7-1.7L24,27.5l-0.8-0.8l1.7-1.7l-1.7-1.7l0.8-0.8
		l1.7,1.7l1.7-1.7l0.8,0.8L26.5,25L28.2,26.7z"/>
</g>
</svg>
