<?xml version="1.0" encoding="utf-8"?>
<!-- Generator: Adobe Illustrator 20.1.0, SVG Export Plug-In . SVG Version: 6.00 Build 0)  -->
<svg version="1.1" id="Layer_1" xmlns="http://www.w3.org/2000/svg" xmlns:xlink="http://www.w3.org/1999/xlink" x="0px" y="0px"
	 viewBox="0 0 50 50" style="enable-background:new 0 0 50 50;" xml:space="preserve">
<style type="text/css">
	.st0{fill:#EF4A53;}
	.st1{fill:#FFFFFF;}
</style>
<circle class="st0" cx="25" cy="25" r="20"/>
<path class="st1" d="M20.1,28.5c0.8,0,1.2-0.5,1.2-1.2c0-0.6,0-1.1,0-1.7c0-0.2,0-0.2,0.2-0.3c0.3-0.1,0.6-0.2,0.9-0.3
	c1.4-0.3,2.7-0.3,4.1-0.2c0.7,0.1,1.4,0.2,2,0.5c0.1,0.1,0.2,0.1,0.2,0.3c0,0.6,0,1.1,0,1.7c0,0.8,0.5,1.3,1.3,1.3
	c0.5,0,0.9,0,1.3,0c0.5,0,0.9,0,1.4,0c0.7,0,1.2-0.5,1.2-1.2c0-0.6,0-1.1,0-1.7c0-0.5-0.2-1-0.5-1.4c-0.6-0.6-1.3-1.1-2-1.4
	c-1.6-0.7-3.2-1.1-4.9-1.2c-2.3-0.2-4.6,0.1-6.8,0.8c-1,0.3-1.9,0.8-2.7,1.5c-0.5,0.5-0.9,1.1-0.8,1.8c0,0.5,0,1,0,1.6
	c0,0.8,0.5,1.3,1.2,1.3C18.3,28.5,19.2,28.5,20.1,28.5L20.1,28.5z M20.1,28.5"/>
</svg>
