<?xml version="1.0" encoding="utf-8"?>
<!-- Generator: Adobe Illustrator 20.1.0, SVG Export Plug-In . SVG Version: 6.00 Build 0)  -->
<svg version="1.1" id="Layer_1" xmlns="http://www.w3.org/2000/svg" xmlns:xlink="http://www.w3.org/1999/xlink" x="0px" y="0px"
	 viewBox="0 0 50 50" style="enable-background:new 0 0 50 50;" xml:space="preserve">
<style type="text/css">
	.st0{fill:#CCCCCC;}
</style>
<g id="Button_0">
	<path class="st0" d="M25,6.4c10.2,0,18.6,8.3,18.6,18.6S35.3,43.6,25,43.6S6.4,35.2,6.4,25S14.8,6.4,25,6.4 M25,5C14,5,5,14,5,25
		s9,20,20,20s20-9,20-20S36.1,5,25,5L25,5z"/>
</g>
<path class="st0" d="M28.2,26.4v-2.3L23.2,29c0.5,0.3,1.1,0.5,1.8,0.5C26.7,29.6,28.2,28.2,28.2,26.4L28.2,26.4z M28.2,26.4
	 M30.1,24.5h-0.6c-0.2,0-0.4,0.2-0.4,0.4v1.3c0,2.3-1.8,4.1-4.1,4.1c-0.9,0-1.6-0.3-2.3-0.7l-1,1c0.7,0.6,1.6,0.9,2.6,1.1v0.9h-2.8
	c-0.2,0-0.4,0.2-0.4,0.4v0.6c0,0.2,0.2,0.4,0.4,0.4h7c0.2,0,0.4-0.2,0.4-0.4v-0.6c0-0.2-0.2-0.4-0.4-0.4h-2.8v-0.9
	c2.7-0.3,4.8-2.7,4.8-5.4v-1.3C30.4,24.7,30.3,24.5,30.1,24.5L30.1,24.5z M30.1,24.5 M31.9,17.6c-0.4-0.4-1-0.4-1.4,0l-2.3,2.3v-0.6
	c0-1.7-1.4-3.2-3.2-3.2c-1.7,0-3.2,1.4-3.2,3.2v6.9L21,27c-0.1-0.3-0.1-0.6-0.1-0.8v-1.3c0-0.2-0.2-0.4-0.4-0.4h-0.6
	c-0.2,0-0.4,0.2-0.4,0.4v1.3c0,0.7,0.1,1.3,0.4,1.9l-1.8,1.8c-0.4,0.4-0.4,1,0,1.4c0.2,0.2,0.5,0.3,0.7,0.3c0.3,0,0.5-0.1,0.7-0.3
	L31.9,19C32.3,18.6,32.3,17.9,31.9,17.6L31.9,17.6z M31.9,17.6"/>
</svg>
