<?xml version="1.0" encoding="utf-8"?>
<!-- Generator: Adobe Illustrator 20.1.0, SVG Export Plug-In . SVG Version: 6.00 Build 0)  -->
<svg version="1.1" id="Layer_1" xmlns="http://www.w3.org/2000/svg" xmlns:xlink="http://www.w3.org/1999/xlink" x="0px" y="0px"
	 viewBox="0 0 50 50" style="enable-background:new 0 0 50 50;" xml:space="preserve">
<style type="text/css">
	.st0{fill:#EF4A53;}
	.st1{fill:#FFFFFF;}
</style>
<circle class="st0" cx="25" cy="25" r="20"/>
<path class="st1" d="M27,20c-0.6,0.6-0.5,1.2,0,1.7c0.4,0.4,0.8,0.8,1.2,1.2c0.1,0.1,0.1,0.1,0.1,0.4c-0.1,0.3-0.3,0.6-0.4,0.8
	c-0.8,1.2-1.7,2.1-2.8,3c-0.6,0.4-1.1,0.8-1.8,1.1c-0.1,0-0.2,0.1-0.4-0.1c-0.4-0.4-0.8-0.8-1.2-1.2c-0.6-0.6-1.3-0.6-1.8,0
	c-0.4,0.4-0.6,0.6-0.9,0.9c-0.4,0.4-0.6,0.6-1,1c-0.5,0.5-0.5,1.2,0,1.7c0.4,0.4,0.8,0.8,1.2,1.2c0.4,0.4,0.8,0.6,1.3,0.6
	c0.8,0,1.7-0.1,2.4-0.4c1.6-0.6,3-1.5,4.3-2.6c1.8-1.5,3.2-3.3,4.2-5.4c0.5-0.9,0.8-1.9,0.8-3c0-0.7-0.1-1.4-0.7-1.8
	c-0.4-0.4-0.7-0.7-1.1-1.1c-0.6-0.6-1.3-0.6-1.8-0.1C28.3,18.7,27.6,19.4,27,20L27,20z M20.8,22.2L19,24l-1.4-1.4l1.8-1.8L17.6,19
	l1.4-1.4l1.8,1.8l1.8-1.8L24,19l-1.8,1.8l1.8,1.8L22.6,24L20.8,22.2z"/>
</svg>
