<?xml version="1.0" encoding="utf-8"?>


<svg version="1.1" id="Layer_1" xmlns="http://www.w3.org/2000/svg" xmlns:xlink="http://www.w3.org/1999/xlink" x="0px" y="0px"
	 viewBox="0 0 400 800" style="enable-background:new 0 0 400 800;" xml:space="preserve">


<defs>
<style type="text/css">@import url('https://fonts.googleapis.com/css?family=Roboto+Condensed:300,300i,400,400i,700,700i');</style>
</defs>

<style type="text/css">

	.st0{fill:#FFFFFF;}
	.st1{fill-rule:evenodd;clip-rule:evenodd;fill:#F7F7F7;}
	.st2{fill-rule:evenodd;clip-rule:evenodd;fill:#D6D6D6;}
	.st3{fill:#8F8F8F;}
	.st4{font-family: 'Roboto Condensed', sans-serif; font-weight:700;}
	.st5{font-size:12px;}
	.st6{fill-rule:evenodd;clip-rule:evenodd;fill:#8F8F8F;}

</style>


<g>
	<rect x="34.7" y="81.2" class="st0" width="336" height="616.7"/>
	<rect x="42.3" y="629.4" class="st1" width="320.5" height="60"/>
	<path class="st1" d="M337.2,11.5H67.8c-26.5,0-48.1,21.5-48.1,48.1v686.9c0,26.5,21.5,48.1,48.1,48.1h269.4
		c26.5,0,48.1-21.5,48.1-48.1V59.6C385.2,33,363.7,11.5,337.2,11.5z M364.2,90.6v598.7v1.5h-1.5H42.3h-1.5v-1.5V90.6v-1.5h1.5h320.4
		h1.5V90.6z"/>
	<path class="st2" d="M364.2,89.1h-1.5H42.3h-1.5v1.5v598.7v1.5h1.5h320.4h1.5v-1.5V90.6V89.1L364.2,89.1z M337.2,796.5H67.8
		c-27.7,0-50.1-22.4-50.1-50.1V282.8h-2c-1.7,0-3-1.3-3-3v-40c0-1.7,1.3-3,3-3h2v-9.1h-2c-1.7,0-3-1.3-3-3v-40c0-1.7,1.3-3,3-3h2
		v-31.1h-2c-1.7,0-3-1.3-3-3v-28c0-1.7,1.3-3,3-3h2V59.6c0-27.7,22.4-50.1,50.1-50.1h200.3v-3c0-1.7,1.3-3,3-3h52.1c1.7,0,3,1.3,3,3
		v3h11c27.7,0,50.1,22.4,50.1,50.1v686.9C387.2,774.1,364.8,796.5,337.2,796.5z M385.2,59.6c0-26.5-21.5-48.1-48.1-48.1H67.8
		c-26.5,0-48.1,21.5-48.1,48.1v686.9c0,26.5,21.5,48.1,48.1,48.1h269.4c26.5,0,48.1-21.5,48.1-48.1V59.6z M245.1,45.5
		c4.5,0,8.1,3.6,8.1,8.1s-3.6,8.1-8.1,8.1h-62.3c-4.5,0-8.1-3.6-8.1-8.1s3.6-8.1,8.1-8.1H245.1 M245.5,44.3h-62.9
		c-5.1,0-9.3,4.2-9.3,9.3s4.2,9.3,9.3,9.3h62.9c5.1,0,9.3-4.2,9.3-9.3S250.6,44.3,245.5,44.3L245.5,44.3z M154.5,45.5
		c4.5,0,8.1,3.6,8.1,8.1c0,4.5-3.6,8.1-8.1,8.1s-8.1-3.6-8.1-8.1C146.5,49.2,150.1,45.5,154.5,45.5 M154.5,44.3
		c-5.1,0-9.3,4.2-9.3,9.3c0,5.1,4.2,9.3,9.3,9.3c5.1,0,9.3-4.2,9.3-9.3C163.9,48.4,159.7,44.3,154.5,44.3L154.5,44.3z M362.7,90.6
		v598.7H42.3V90.6H362.7 M202,713.5c16.1,0,29.1,13.1,29.1,29.1c0,16.1-13.1,29.1-29.1,29.1s-29.1-13.1-29.1-29.1
		C172.9,726.6,185.9,713.5,202,713.5 M202,712.3c-16.8,0-30.3,13.6-30.3,30.3S185.2,773,202,773s30.3-13.6,30.3-30.3
		S218.8,712.3,202,712.3L202,712.3z M202,729.8c7.1,0,12.8,5.7,12.8,12.8c0,7.1-5.7,12.8-12.8,12.8s-12.8-5.7-12.8-12.8
		C189.2,735.6,194.9,729.8,202,729.8 M202,728.5c-7.8,0-14.1,6.3-14.1,14.1c0,7.8,6.3,14.1,14.1,14.1s14.1-6.3,14.1-14.1
		C216.1,734.8,209.8,728.5,202,728.5L202,728.5z"/>
	<g>
		<path class="st1" d="M42.3,90.6h320.4v35H42.3V90.6z"/>
		<text transform="matrix(1 0 0 1 295.712 112.1237)" class="st3 st4 st5">100%</text>
		<text transform="matrix(1 0 0 1 183.0152 112.1237)" class="st3 st4 st5">7:40 PM</text>
		<text transform="matrix(1 0 0 1 85.0289 112.1237)" class="st3 st4 st5">ONEm</text>
		<g>
			<circle class="st6" cx="51" cy="108.1" r="3"/>
			<circle class="st6" cx="58" cy="108.1" r="3"/>
			<circle class="st6" cx="65" cy="108.1" r="3"/>
			<path class="st6" d="M79,105.1c-1.7,0-3,1.3-3,3c0,1.7,1.3,3,3,3s3-1.3,3-3C82,106.5,80.7,105.1,79,105.1z M79,110.1
				c-1.1,0-2-0.9-2-2c0-1.1,0.9-2,2-2c1.1,0,2,0.9,2,2C81,109.2,80.1,110.1,79,110.1z"/>
			<path class="st6" d="M72,105.1c-1.7,0-3,1.3-3,3c0,1.7,1.3,3,3,3s3-1.3,3-3C75,106.5,73.7,105.1,72,105.1z M72,110.1
				c-1.1,0-2-0.9-2-2c0-1.1,0.9-2,2-2c1.1,0,2,0.9,2,2C74,109.2,73.1,110.1,72,110.1z"/>
		</g>
		<g>
			<g>
				<path class="st3" d="M125.5,103c-2.3,0-4.4,1-6,2.4l0.9,1.1c1.4-1.2,3.1-1.9,5.1-1.9c1.9,0,3.7,0.7,5.1,1.9l0.9-1.1
					C129.9,104,127.8,103,125.5,103z M121.5,107.6l1,1.1c0.8-0.7,1.9-1.1,3-1.1c1.2,0,2.2,0.4,3,1.1l1-1.1c-1.1-0.9-2.5-1.6-4-1.6
					C124,106.1,122.5,106.7,121.5,107.6z M123.4,109.9l2,2.3l2-2.3c-0.6-0.5-1.3-0.8-2-0.8C124.7,109.1,124,109.4,123.4,109.9z"/>
			</g>
		</g>
		<path class="st3" d="M289,107.4l2.6-2.9l-3.6-3.9h-0.2v5.6l-2.6-2.7l-0.6,0.7l3.1,3.2l-3.1,3.2l0.6,0.7l2.6-2.7v5.1h0.3l3.5-3.6
			L289,107.4z M290.1,104.8l-1.4,1.5v-2.8L290.1,104.8z M288.7,111.4v-2.8l1.5,1.5L288.7,111.4z"/>
		<g>
			<path class="st6" d="M354.7,103.6c0-1.1-0.9-2-2-2h-20c-1.1,0-2,0.9-2,2v7c0,1.1,0.9,2,2,2h20c1.1,0,2-0.9,2-2V103.6z
				 M353.7,111.1c0,0.5-0.4,0.5-1,0.5h-20c-0.5,0-1,0.1-1-0.5v-7c0-0.5,0.4-1.5,1-1.5h20c0.5,0,1,0.9,1,1.5V111.1z"/>
			<path class="st6" d="M352.7,109.7c0,0.5-0.4,1-1,1h-18c-0.5,0-1-0.4-1-1v-5.1c0-0.5,0.4-1,1-1h18c0.5,0,1,0.4,1,1V109.7z"/>
			<rect x="355.7" y="105.6" class="st6" width="1" height="3"/>
		</g>
	</g>
</g>
</svg>
