<?xml version="1.0" encoding="utf-8"?>
<!-- Generator: Adobe Illustrator 20.1.0, SVG Export Plug-In . SVG Version: 6.00 Build 0)  -->
<svg version="1.1" id="Layer_1" xmlns="http://www.w3.org/2000/svg" xmlns:xlink="http://www.w3.org/1999/xlink" x="0px" y="0px"
	 viewBox="0 0 400 800" style="enable-background:new 0 0 400 800;" xml:space="preserve">
<style type="text/css">
	.st0{fill:#FFFFFF;}
	.st1{fill:#F7F7F7;}
	.st2{fill:#D6D6D6;}
	.st3{enable-background:new    ;}
	.st4{fill:#8F8F8F;}
</style>
<g>
	<rect x="34.7" y="81.2" class="st0" width="336" height="676.7"/>
	<path class="st1" d="M337.2,11.5H67.8c-26.5,0-48.1,21.5-48.1,48.1v686.9c0,26.5,21.5,48.1,48.1,48.1h269.4
		c26.5,0,48.1-21.5,48.1-48.1V59.6C385.2,33,363.7,11.5,337.2,11.5z M364.2,90.6v658.7v1.5h-1.5H42.3h-1.5v-1.5V90.6v-1.5h1.5h320.4
		h1.5L364.2,90.6L364.2,90.6z"/>
	<path class="st2" d="M364.2,89.1h-1.5H42.3h-1.5v1.5v658.7v1.5h1.5h320.4h1.5v-1.5V90.6L364.2,89.1L364.2,89.1z M337.2,796.5H67.8
		c-27.7,0-50.1-22.4-50.1-50.1V282.8h-2c-1.7,0-3-1.3-3-3v-40c0-1.7,1.3-3,3-3h2v-9.1h-2c-1.7,0-3-1.3-3-3v-40c0-1.7,1.3-3,3-3h2
		v-31.1h-2c-1.7,0-3-1.3-3-3v-28c0-1.7,1.3-3,3-3h2v-57c0-27.7,22.4-50.1,50.1-50.1h200.3v-3c0-1.7,1.3-3,3-3h52.1c1.7,0,3,1.3,3,3
		v3h11c27.7,0,50.1,22.4,50.1,50.1v686.9C387.2,774.1,364.8,796.5,337.2,796.5z M385.2,59.6c0-26.5-21.5-48.1-48.1-48.1H67.8
		c-26.5,0-48.1,21.5-48.1,48.1v686.9c0,26.5,21.5,48.1,48.1,48.1h269.4c26.5,0,48.1-21.5,48.1-48.1V59.6H385.2z M362.7,90.6v658.7
		H42.3V90.6H362.7"/>
	<g>
		<path class="st1" d="M42.3,90.6h320.4v35H42.3V90.6z"/>
		<g class="st3">
			<path class="st4" d="M300.4,112.1h-1.7v-6.5l-2,0.6v-1.4l3.5-1.3h0.2V112.1z"/>
			<path class="st4" d="M308.9,108.6c0,0.6-0.1,1.2-0.2,1.6s-0.3,0.8-0.6,1.1s-0.6,0.5-0.9,0.7s-0.7,0.2-1.2,0.2s-0.8-0.1-1.2-0.2
				s-0.7-0.4-0.9-0.7s-0.5-0.7-0.6-1.1s-0.2-1-0.2-1.6v-1.5c0-0.6,0.1-1.2,0.2-1.6s0.3-0.8,0.6-1.1s0.6-0.5,0.9-0.7s0.7-0.2,1.2-0.2
				s0.8,0.1,1.2,0.2s0.7,0.4,0.9,0.7s0.5,0.7,0.6,1.1s0.2,1,0.2,1.6V108.6z M307.2,106.9c0-0.4,0-0.7-0.1-1s-0.1-0.5-0.2-0.6
				s-0.2-0.3-0.4-0.3s-0.3-0.1-0.5-0.1s-0.4,0-0.5,0.1s-0.3,0.2-0.4,0.3s-0.2,0.4-0.2,0.6s-0.1,0.6-0.1,1v1.9c0,0.4,0,0.7,0.1,1
				s0.1,0.5,0.2,0.6s0.2,0.3,0.4,0.3s0.3,0.1,0.5,0.1s0.4,0,0.5-0.1s0.3-0.2,0.4-0.3s0.2-0.4,0.2-0.6s0.1-0.6,0.1-1V106.9z"/>
			<path class="st4" d="M315.8,108.6c0,0.6-0.1,1.2-0.2,1.6s-0.3,0.8-0.6,1.1s-0.6,0.5-0.9,0.7s-0.7,0.2-1.2,0.2s-0.8-0.1-1.2-0.2
				s-0.7-0.4-0.9-0.7s-0.5-0.7-0.6-1.1s-0.2-1-0.2-1.6v-1.5c0-0.6,0.1-1.2,0.2-1.6s0.3-0.8,0.6-1.1s0.6-0.5,0.9-0.7s0.7-0.2,1.2-0.2
				s0.8,0.1,1.2,0.2s0.7,0.4,0.9,0.7s0.5,0.7,0.6,1.1s0.2,1,0.2,1.6V108.6z M314.1,106.9c0-0.4,0-0.7-0.1-1s-0.1-0.5-0.2-0.6
				s-0.2-0.3-0.4-0.3s-0.3-0.1-0.5-0.1s-0.4,0-0.5,0.1s-0.3,0.2-0.4,0.3s-0.2,0.4-0.2,0.6s-0.1,0.6-0.1,1v1.9c0,0.4,0,0.7,0.1,1
				s0.1,0.5,0.2,0.6s0.2,0.3,0.4,0.3s0.3,0.1,0.5,0.1s0.4,0,0.5-0.1s0.3-0.2,0.4-0.3s0.2-0.4,0.2-0.6s0.1-0.6,0.1-1V106.9z"/>
			<path class="st4" d="M316.9,105.2c0-0.2,0-0.5,0.1-0.7s0.2-0.4,0.4-0.6s0.3-0.3,0.6-0.4s0.5-0.1,0.8-0.1c0.3,0,0.6,0,0.8,0.1
				s0.4,0.2,0.6,0.4s0.3,0.3,0.4,0.6s0.1,0.4,0.1,0.7v0.5c0,0.2,0,0.5-0.1,0.7s-0.2,0.4-0.4,0.6s-0.3,0.3-0.6,0.4s-0.5,0.1-0.8,0.1
				c-0.3,0-0.6,0-0.8-0.1s-0.4-0.2-0.6-0.4s-0.3-0.3-0.4-0.6s-0.1-0.4-0.1-0.7V105.2z M318,105.7c0,0.1,0,0.2,0,0.3s0.1,0.2,0.1,0.2
				s0.1,0.1,0.2,0.2s0.2,0.1,0.3,0.1c0.1,0,0.2,0,0.3-0.1s0.2-0.1,0.2-0.2s0.1-0.2,0.1-0.2s0-0.2,0-0.3v-0.5c0-0.1,0-0.2,0-0.3
				s-0.1-0.2-0.1-0.3s-0.1-0.1-0.2-0.2s-0.2-0.1-0.3-0.1c-0.1,0-0.2,0-0.3,0.1s-0.2,0.1-0.2,0.2s-0.1,0.2-0.1,0.3s0,0.2,0,0.3V105.7
				z M319.1,111.5l-0.8-0.4l4.2-6.7l0.8,0.4L319.1,111.5z M321,110c0-0.2,0-0.5,0.1-0.7s0.2-0.4,0.4-0.6s0.4-0.3,0.6-0.4
				s0.5-0.1,0.8-0.1c0.3,0,0.6,0,0.8,0.1s0.4,0.2,0.6,0.4s0.3,0.3,0.4,0.6s0.1,0.4,0.1,0.7v0.5c0,0.2,0,0.5-0.1,0.7
				s-0.2,0.4-0.4,0.6s-0.3,0.3-0.6,0.4s-0.5,0.1-0.8,0.1c-0.3,0-0.6,0-0.8-0.1s-0.4-0.2-0.6-0.4s-0.3-0.3-0.4-0.6s-0.1-0.4-0.1-0.7
				V110z M322.1,110.5c0,0.1,0,0.2,0.1,0.3s0.1,0.2,0.1,0.2s0.1,0.1,0.2,0.2s0.2,0.1,0.3,0.1c0.1,0,0.3,0,0.3-0.1s0.2-0.1,0.2-0.2
				s0.1-0.2,0.1-0.2s0-0.2,0-0.3V110c0-0.1,0-0.2,0-0.3s-0.1-0.2-0.1-0.2s-0.1-0.1-0.2-0.2s-0.2-0.1-0.3-0.1s-0.2,0-0.3,0.1
				s-0.2,0.1-0.2,0.2s-0.1,0.2-0.1,0.2s0,0.2,0,0.3V110.5z"/>
		</g>
		<g class="st3">
			<path class="st4" d="M92.8,108.1c0,0.7-0.1,1.2-0.3,1.8s-0.4,1-0.7,1.3s-0.7,0.6-1.1,0.8s-0.9,0.3-1.5,0.3s-1-0.1-1.5-0.3
				s-0.8-0.5-1.2-0.8s-0.6-0.8-0.8-1.3s-0.3-1.1-0.3-1.8v-0.4c0-0.6,0.1-1.2,0.3-1.8s0.4-1,0.7-1.3s0.7-0.6,1.1-0.8s0.9-0.3,1.5-0.3
				s1,0.1,1.5,0.3s0.8,0.5,1.1,0.8s0.6,0.8,0.7,1.3s0.3,1.1,0.3,1.8V108.1z M91,107.7c0-0.9-0.2-1.6-0.5-2s-0.8-0.7-1.4-0.7
				s-1.1,0.2-1.4,0.7s-0.5,1.1-0.5,2v0.4c0,0.4,0,0.8,0.1,1.2s0.2,0.6,0.4,0.9s0.4,0.4,0.6,0.5s0.5,0.2,0.8,0.2c0.6,0,1-0.2,1.4-0.7
				s0.5-1.2,0.5-2V107.7z"/>
			<path class="st4" d="M101,112.1h-1.8l-3.4-5.6v5.6h-1.8v-8.5h1.8l3.4,5.6v-5.6h1.8V112.1z"/>
			<path class="st4" d="M107.7,108.4h-3.4v2.3h4v1.4h-5.7v-8.5h5.7v1.4h-3.9v2h3.4V108.4z"/>
			<path class="st4" d="M110.8,105.8l0.1,0.7c0.2-0.3,0.5-0.5,0.8-0.6s0.7-0.2,1.1-0.2c0.4,0,0.7,0.1,1,0.2s0.5,0.4,0.7,0.7
				c0.2-0.3,0.5-0.5,0.8-0.7s0.7-0.3,1.1-0.3c0.3,0,0.6,0,0.8,0.1s0.5,0.2,0.6,0.4s0.3,0.4,0.4,0.7s0.1,0.7,0.1,1.1v4h-1.7v-4
				c0-0.2,0-0.4-0.1-0.5s-0.1-0.2-0.2-0.3s-0.2-0.1-0.3-0.2s-0.3,0-0.4,0c-0.3,0-0.5,0.1-0.7,0.2s-0.3,0.3-0.4,0.5c0,0,0,0,0,0.1
				s0,0,0,0.1v4.2h-1.7v-4c0-0.2,0-0.4-0.1-0.5s-0.1-0.2-0.2-0.3s-0.2-0.1-0.3-0.2s-0.3,0-0.4,0c-0.3,0-0.5,0.1-0.6,0.2
				s-0.3,0.3-0.4,0.4v4.5h-1.7v-6.3H110.8z"/>
		</g>
		<g>
			<circle class="st4" cx="51" cy="108.1" r="3"/>
			<circle class="st4" cx="58" cy="108.1" r="3"/>
			<circle class="st4" cx="65" cy="108.1" r="3"/>
			<path class="st4" d="M79,105.1c-1.7,0-3,1.3-3,3s1.3,3,3,3s3-1.3,3-3C82,106.5,80.7,105.1,79,105.1z M79,110.1c-1.1,0-2-0.9-2-2
				s0.9-2,2-2s2,0.9,2,2S80.1,110.1,79,110.1z"/>
			<path class="st4" d="M72,105.1c-1.7,0-3,1.3-3,3s1.3,3,3,3s3-1.3,3-3C75,106.5,73.7,105.1,72,105.1z M72,110.1c-1.1,0-2-0.9-2-2
				s0.9-2,2-2s2,0.9,2,2S73.1,110.1,72,110.1z"/>
		</g>
		<g>
			<g>
				<path class="st4" d="M125.5,103c-2.3,0-4.4,1-6,2.4l0.9,1.1c1.4-1.2,3.1-1.9,5.1-1.9c1.9,0,3.7,0.7,5.1,1.9l0.9-1.1
					C129.9,104,127.8,103,125.5,103z M121.5,107.6l1,1.1c0.8-0.7,1.9-1.1,3-1.1c1.2,0,2.2,0.4,3,1.1l1-1.1c-1.1-0.9-2.5-1.6-4-1.6
					C124,106.1,122.5,106.7,121.5,107.6z M123.4,109.9l2,2.3l2-2.3c-0.6-0.5-1.3-0.8-2-0.8C124.7,109.1,124,109.4,123.4,109.9z"/>
			</g>
		</g>
		<path class="st4" d="M289,107.4l2.6-2.9l-3.6-3.9h-0.2v5.6l-2.6-2.7l-0.6,0.7l3.1,3.2l-3.1,3.2l0.6,0.7l2.6-2.7v5.1h0.3l3.5-3.6
			L289,107.4z M290.1,104.8l-1.4,1.5v-2.8L290.1,104.8z M288.7,111.4v-2.8l1.5,1.5L288.7,111.4z"/>
		<g>
			<path class="st4" d="M354.7,103.6c0-1.1-0.9-2-2-2h-20c-1.1,0-2,0.9-2,2v7c0,1.1,0.9,2,2,2h20c1.1,0,2-0.9,2-2V103.6z
				 M353.7,111.1c0,0.5-0.4,0.5-1,0.5h-20c-0.5,0-1,0.1-1-0.5v-7c0-0.5,0.4-1.5,1-1.5h20c0.5,0,1,0.9,1,1.5V111.1z"/>
			<path class="st4" d="M352.7,109.7c0,0.5-0.4,1-1,1h-18c-0.5,0-1-0.4-1-1v-5.1c0-0.5,0.4-1,1-1h18c0.5,0,1,0.4,1,1V109.7z"/>
			<rect x="355.7" y="105.6" class="st4" width="1" height="3"/>
		</g>
	</g>
</g>
</svg>
