<?xml version="1.0" encoding="utf-8"?>
<!-- Generator: Adobe Illustrator 20.1.0, SVG Export Plug-In . SVG Version: 6.00 Build 0)  -->
<svg version="1.1" id="Layer_1" xmlns="http://www.w3.org/2000/svg" xmlns:xlink="http://www.w3.org/1999/xlink" x="0px" y="0px"
	 viewBox="0 0 50 50" style="enable-background:new 0 0 50 50;" xml:space="preserve">
<style type="text/css">
	.st0{fill:#CCCCCC;}
</style>
<path class="st0" d="M16.9,12.4L5.5,23.9c-0.7,0.7-0.7,2,0,2.6l11.4,11.4c0.3,0.3,0.7,0.7,1.3,0.7H43c1,0,2-0.7,2-2V13.4
	c0-1-0.7-2-2-2H18.2C17.9,11.8,17.2,12.1,16.9,12.4z M37.2,30.7l-2.6,2.6L29,27.8l-5.6,5.6l-2.6-2.6l5.6-5.6l-5.6-5.6l2.6-2.6
	l5.6,5.6l5.6-5.6l2.6,2.6l-5.6,5.6L37.2,30.7z"/>
</svg>
