<?xml version="1.0" encoding="utf-8"?>
<!-- Generator: Adobe Illustrator 20.1.0, SVG Export Plug-In . SVG Version: 6.00 Build 0)  -->
<svg version="1.1" id="Layer_1" xmlns="http://www.w3.org/2000/svg" xmlns:xlink="http://www.w3.org/1999/xlink" x="0px" y="0px"
	 viewBox="0 0 340 80" style="enable-background:new 0 0 340 80;" xml:space="preserve">
<style type="text/css">
	.st0{fill:#787878;}
	.st1{fill:#8E9090;}
	.st2{fill:#AD1B14;}
	.st3{fill:#E2231A;}
	.st4{fill:#FFFFFF;}
</style>
<polygon class="st0" points="202.6,75.2 228.3,53.8 202.6,53.8 "/>
<rect x="163.3" y="11.8" class="st1" width="162.8" height="51.3"/>
<polygon class="st2" points="123.3,79.9 97.7,58.5 123.3,58.5 "/>
<rect class="st3" width="146" height="69"/>
<g>
	<path class="st4" d="M132.8,17.6c-1.9,0-3.4,1.5-3.4,3.4c0,1.9,1.5,3.4,3.4,3.4c1.9,0,3.4-1.5,3.4-3.4
		C136.2,19.1,134.7,17.6,132.8,17.6 M132.8,23.8c-1.6,0-2.8-1.3-2.8-2.8c0-1.6,1.3-2.8,2.8-2.8c1.6,0,2.8,1.3,2.8,2.8
		C135.6,22.6,134.4,23.8,132.8,23.8"/>
	<path class="st4" d="M133.7,19.3c0.1,0.1,0.2,0.1,0.3,0.2c0.1,0.1,0.1,0.2,0.2,0.3c0,0.1,0.1,0.2,0.1,0.4c0,0.2,0,0.3-0.1,0.5
		c-0.1,0.2-0.2,0.3-0.4,0.3c0.2,0.1,0.3,0.2,0.3,0.3c0.1,0.1,0.1,0.3,0.1,0.5V22c0,0.2,0,0.3,0,0.3c0,0.1,0.1,0.2,0.1,0.2v0.1h-0.8
		c0-0.1,0-0.1,0-0.2c0-0.1,0-0.2,0-0.3l0-0.3c0-0.2,0-0.4-0.1-0.4c-0.1-0.1-0.2-0.1-0.4-0.1h-0.7v1.3h-0.7v-3.4h1.6
		C133.4,19.3,133.5,19.3,133.7,19.3 M132.2,19.8v0.9h0.8c0.1,0,0.3,0,0.3-0.1c0.1-0.1,0.2-0.2,0.2-0.4c0-0.2-0.1-0.3-0.2-0.4
		c-0.1,0-0.2-0.1-0.3-0.1H132.2z"/>
	<path class="st4" d="M136.2,51.2h-6.7v-9.6c0-1.7-0.2-2.8-0.5-3.4c-0.5-0.9-1.2-1.4-2.3-1.4c-1.1,0-2,0.5-2.6,1.5
		c-0.4,0.7-0.6,1.8-0.6,3.3v9.6H117v-9.6c0-1.7-0.1-2.8-0.4-3.3c-0.5-1-1.4-1.5-2.5-1.5c-1,0-1.9,0.4-2.4,1.3
		c-0.2,0.3-0.4,0.7-0.5,1.3c-0.1,0.5-0.1,1.3-0.1,2.2v9.6h-7.4V31.8h7.4v2.4c0.8-0.8,1.5-1.4,2.2-1.7c1.2-0.7,2.5-1,3.9-1
		c1.9,0,3.4,0.5,4.6,1.5c0.6,0.5,1.2,1.2,1.8,2.1c0.5-0.9,1.1-1.6,1.7-2.1c1.3-1.1,2.9-1.6,4.6-1.6c1.4,0,2.7,0.3,3.8,1
		c1.2,0.8,1.9,1.8,2.3,3.1c0.2,0.8,0.3,1.8,0.3,3V51.2"/>
	<polyline class="st4" points="76.2,51.2 66.8,51.2 54.8,33.9 55,51.2 45.1,51.2 45.1,18.7 55,18.7 66.5,36.4 66.8,18.7 76.2,18.7 
		76.2,51.2 	"/>
	<polyline class="st4" points="100.3,51.2 79.3,51.2 79.3,18.7 100.3,18.7 100.3,25.8 88.4,25.8 88.4,31.3 100.6,31.3 100.6,38.4 
		88.4,38.4 88.4,44.1 100.3,44.1 100.3,51.2 	"/>
	<path class="st4" d="M23.5,23.3h4.8v2.8c1.5,0.5,2.8,1.3,3.9,2.6c1.3,1.6,2,3.6,2,5.8c0,2.2-0.6,4.1-2,5.7
		c-1.1,1.4-2.4,2.3-3.9,2.7v2.7h-4.8V43c-1.5-0.5-2.8-1.3-3.9-2.7c-1.3-1.7-2-3.6-2-5.7c0-1,0.1-2.1,0.5-3.1c0.6-1.8,1.6-3.2,3-4.2
		c0.7-0.6,1.5-0.9,2.3-1.2V23.3z M24,17.8c-4.3,0.4-7.7,2.3-10.4,5.5c-1.2,1.5-2.1,3.2-2.8,5.3c-0.7,2-1.1,4.1-1.1,6
		c0,4.3,1.3,8.1,3.9,11.3c3,3.7,7.1,5.5,12.2,5.5c5.1,0,9.2-1.8,12.2-5.5c2.6-3.2,3.9-7,3.9-11.3c0-4.3-1.3-8.1-3.9-11.3
		c-3-3.7-7.1-5.5-12.2-5.5C25.2,17.8,24.6,17.7,24,17.8z"/>
</g>
<g>
	<path class="st4" d="M194.8,47.9h-8.5V24.2h8.5c3.9,0,6.4,1.5,7.7,4.6c0.7,1.8,1.1,4.1,1.1,6.9c0,6-1.5,9.7-4.5,11.3
		C197.9,47.6,196.5,47.9,194.8,47.9z M200.9,35.8c0-4.5-1-7.4-3-8.5c-0.8-0.5-1.8-0.7-3-0.7H189v19h5.8
		C198.8,45.6,200.9,42.3,200.9,35.8z"/>
	<path class="st4" d="M219.6,45.8l1-0.1l0.1,2c-2.6,0.4-4.8,0.5-6.7,0.5c-2.5,0-4.2-0.7-5.2-2.1c-1-1.4-1.5-3.6-1.5-6.7
		c0-6,2.4-9,7.2-9c2.3,0,4,0.6,5.2,1.9c1.1,1.3,1.7,3.3,1.7,6.1l-0.1,2h-11.3c0,1.9,0.3,3.3,1,4.2c0.7,0.9,1.9,1.4,3.6,1.4
		S217.9,46,219.6,45.8z M218.7,38.4c0-2.1-0.3-3.6-1-4.5c-0.7-0.9-1.8-1.3-3.3-1.3c-1.5,0-2.7,0.5-3.4,1.4c-0.8,0.9-1.2,2.4-1.2,4.4
		H218.7z"/>
	<path class="st4" d="M230.7,32.8c-2.5,0-3.7,0.9-3.7,2.6c0,0.8,0.3,1.4,0.9,1.7s1.9,0.7,3.9,1c2,0.4,3.5,0.9,4.3,1.5
		c0.8,0.6,1.3,1.8,1.3,3.6s-0.6,3-1.7,3.9c-1.1,0.8-2.8,1.2-4.9,1.2c-1.4,0-3.1-0.2-5-0.5l-1-0.2l0.1-2.2c2.6,0.4,4.6,0.6,5.9,0.6
		s2.3-0.2,3-0.6c0.7-0.4,1-1.1,1-2.1s-0.3-1.7-0.9-2c-0.6-0.4-1.9-0.7-3.9-1c-2-0.3-3.4-0.8-4.3-1.4c-0.8-0.6-1.3-1.8-1.3-3.4
		c0-1.7,0.6-2.9,1.8-3.7c1.2-0.8,2.6-1.2,4.4-1.2c1.4,0,3.1,0.2,5.2,0.5l1,0.2l-0.1,2.2C234.1,33,232.1,32.8,230.7,32.8z"/>
	<path class="st4" d="M243.8,47.9h-2.6V23.4h2.6v14.5l2.7-0.1l4.9-6.9h2.9l-5.6,7.9l5.8,9.2h-2.9l-5.1-7.9l-2.7,0.1V47.9z"/>
	<path class="st4" d="M266.5,33h-5.4v8.2c0,2,0.1,3.3,0.4,3.9c0.3,0.6,1,0.9,2,0.9l3-0.2l0.2,2.1c-1.5,0.3-2.7,0.4-3.5,0.4
		c-1.8,0-3-0.4-3.7-1.3c-0.7-0.9-1-2.5-1-5v-9h-2.4v-2.2h2.4v-5.2h2.5v5.2h5.4V33z"/>
	<path class="st4" d="M268.9,39.3c0-3.1,0.6-5.4,1.7-6.8c1.1-1.4,3-2.1,5.7-2.1c2.7,0,4.5,0.7,5.7,2.1c1.1,1.4,1.7,3.7,1.7,6.8
		c0,3.1-0.5,5.4-1.6,6.8c-1.1,1.4-3,2.1-5.8,2.1c-2.8,0-4.7-0.7-5.8-2.1C269.4,44.7,268.9,42.5,268.9,39.3z M271.5,39.3
		c0,2.5,0.3,4.3,0.9,5.3c0.6,1,1.9,1.5,3.8,1.5c1.9,0,3.2-0.5,3.8-1.5c0.6-1,0.9-2.7,0.9-5.3c0-2.5-0.3-4.2-1-5.2
		c-0.7-0.9-1.9-1.4-3.7-1.4c-1.8,0-3,0.5-3.7,1.4C271.9,35.1,271.5,36.8,271.5,39.3z"/>
	<path class="st4" d="M287.7,55.6V30.8h2.5v1.2c1.7-1,3.4-1.6,5.1-1.6c2.2,0,3.7,0.7,4.7,2.1c1,1.4,1.5,3.7,1.5,6.8
		c0,3.2-0.6,5.5-1.7,6.8c-1.2,1.4-3.1,2.1-5.7,2.1c-1.4,0-2.7-0.1-3.8-0.4v7.6H287.7z M295,32.8c-0.7,0-1.4,0.1-2.2,0.3
		c-0.8,0.2-1.4,0.5-1.9,0.7l-0.7,0.3v11.5c1.6,0.3,2.9,0.4,3.7,0.4c1.8,0,3.1-0.5,3.9-1.6c0.7-1.1,1.1-2.8,1.1-5.1
		c0-2.4-0.3-4.1-1-5.1C297.3,33.3,296.3,32.8,295,32.8z"/>
</g>
</svg>
