<svg xmlns="http://www.w3.org/2000/svg" viewBox="0 0 50 50"><circle cx="25" cy="25" r="20" fill="#85c06e"/><path d="M29.9 26.9c-.5-.5-1.2-.5-1.7 0L27 28.1c-.1.1-.2.1-.3.1-.3-.1-.5-.3-.8-.4-1.2-.7-2.2-1.7-3-2.8-.4-.5-.8-1.1-1.1-1.7-.1-.1 0-.2.1-.3l1.2-1.2c.6-.6.6-1.2 0-1.8l-1-1-1-1c-.5-.5-1.2-.5-1.7 0l-1.2 1.2c-.4.4-.6.8-.6 1.3-.1.8.1 1.6.4 2.4.6 1.6 1.5 3.1 2.6 4.4 1.5 1.8 3.3 3.2 5.4 4.2.9.5 1.9.8 3 .9.7 0 1.4-.1 1.9-.7.3-.4.7-.7 1.1-1.1.5-.6.5-1.2 0-1.8-.7-.6-1.4-1.3-2.1-1.9zm-.5-2.5c-.1-1-.6-1.9-1.2-2.6-.7-.7-1.6-1.1-2.6-1.2l-.1 1.7c.5 0 1.1.2 1.6.7.5.5.7 1.1.7 1.6l1.6-.2zm-3.5-6.8l-.1 1.6c1.4.2 2.6.6 3.5 1.4.9.8 1.4 2 1.6 3.5l1.6-.1c-.2-2-.9-3.5-2-4.5-1.3-1.1-2.8-1.7-4.6-1.9z" fill="#fff"/></svg>