<svg xmlns="http://www.w3.org/2000/svg" viewBox="0 0 50 50"><circle cx="25" cy="25" r="20" fill="#ef4a53"/><path d="M27 20c-.6.6-.5 1.2 0 1.7l1.2 1.2c.1.1.1.1.1.4-.1.3-.3.6-.4.8-.8 1.2-1.7 2.1-2.8 3-.6.4-1.1.8-1.8 1.1-.1 0-.2.1-.4-.1l-1.2-1.2c-.6-.6-1.3-.6-1.8 0l-.9.9-1 1c-.5.5-.5 1.2 0 1.7l1.2 1.2c.4.4.8.6 1.3.6.8 0 1.7-.1 2.4-.4 1.6-.6 3-1.5 4.3-2.6 1.8-1.5 3.2-3.3 4.2-5.4.5-.9.8-1.9.8-3 0-.7-.1-1.4-.7-1.8L30.4 18c-.6-.6-1.3-.6-1.8-.1-.3.8-1 1.5-1.6 2.1zm-6.2 2.2L19 24l-1.4-1.4 1.8-1.8-1.8-1.8 1.4-1.4 1.8 1.8 1.8-1.8L24 19l-1.8 1.8 1.8 1.8-1.4 1.4-1.8-1.8z" fill="#fff"/></svg>